<?xml version="1.0" encoding="utf-8"?>
<!-- Generator: Adobe Illustrator 17.0.0, SVG Export Plug-In . SVG Version: 6.00 Build 0)  -->
<!DOCTYPE svg PUBLIC "-//W3C//DTD SVG 1.1//EN" "http://www.w3.org/Graphics/SVG/1.1/DTD/svg11.dtd">
<svg version="1.1" id="Layer_1" xmlns="http://www.w3.org/2000/svg" xmlns:xlink="http://www.w3.org/1999/xlink" x="0px" y="0px"
	 width="566.93px" height="566.93px" viewBox="0 0 566.93 566.93" enable-background="new 0 0 566.93 566.93" xml:space="preserve">
<polyline fill="none" stroke="#606363" stroke-width="7" stroke-miterlimit="10" points="115,116.09 173,88.667 259.449,67.663 
	308.842,67.663 388.037,99.219 467.123,178.974 480,252 375.582,453.547 381.333,468 388.259,463.055 468.549,385.457 472,353.5 
	224,353.5 175.809,329.925 110,301 110,260.667 178.15,228.281 258.667,209.34 459.333,209.34 468.667,233 468.505,241.419 
	244.667,463.333 251.333,493.34 317.333,493.34 "/>
<polyline fill="none" stroke="#606363" stroke-width="7" stroke-miterlimit="10" points="180,476 110,442 106.667,404 180,369.445 
	"/>
<line fill="none" stroke="#606363" stroke-width="7" stroke-miterlimit="10" x1="113.596" y1="156.561" x2="176.734" y2="189.654"/>
<line fill="none" stroke="#606363" stroke-width="7" stroke-miterlimit="10" x1="188.5" y1="105.503" x2="95.5" y2="244.5"/>
<polyline fill="none" stroke="#606363" stroke-width="7" stroke-miterlimit="10" points="197.114,110.509 88.129,380.545 92.5,390 
	192.775,244.5 "/>
<line fill="none" stroke="#606363" stroke-width="7" stroke-miterlimit="10" x1="95.5" y1="175.001" x2="188.5" y2="315"/>
<polyline fill="none" stroke="#606363" stroke-width="7" stroke-miterlimit="10" points="88.129,178.862 201.333,456 192,461.333 
	90.667,309 "/>
<line fill="none" stroke="#606363" stroke-width="7" stroke-miterlimit="10" x1="244.667" y1="95.333" x2="327.333" y2="178.862"/>
<line fill="none" stroke="#606363" stroke-width="7" stroke-miterlimit="10" x1="327.333" y1="98.667" x2="244.667" y2="178.862"/>
<line fill="none" stroke="#606363" stroke-width="7" stroke-miterlimit="10" x1="233.333" y1="105.503" x2="338.667" y2="315"/>
<polyline fill="none" stroke="#606363" stroke-width="7" stroke-miterlimit="10" points="227.333,105.503 346.667,453.333 
	338.667,456.667 231.333,244.5 "/>
<polyline fill="none" stroke="#606363" stroke-width="7" stroke-miterlimit="10" points="227.333,448.84 344.5,110.509 337,105.503 
	236,312.5 244.667,238.5 327.333,320.097 "/>
<line fill="none" stroke="#606363" stroke-width="7" stroke-miterlimit="10" x1="338.667" y1="247" x2="233.333" y2="456.667"/>
<line fill="none" stroke="#606363" stroke-width="7" stroke-miterlimit="10" x1="388" y1="239.899" x2="474.667" y2="322"/>
<line fill="none" stroke="#606363" stroke-width="7" stroke-miterlimit="10" x1="480" y1="315" x2="376" y2="105.503"/>
<line fill="none" stroke="#606363" stroke-width="7" stroke-miterlimit="10" x1="327.333" y1="464" x2="244.667" y2="379"/>
<line fill="none" stroke="#606363" stroke-width="7" stroke-miterlimit="10" x1="327.333" y1="239.899" x2="247.333" y2="320.097"/>
<circle fill="#1D89CA" cx="73.75" cy="136.75" r="44.5"/>
<circle fill="#1D89CA" cx="73.75" cy="277.5" r="44.5"/>
<circle fill="#1D89CA" cx="76.5" cy="423.5" r="44.5"/>
<circle fill="#1D89CA" cx="499.5" cy="209.5" r="44.5"/>
<circle fill="#3BA3DB" cx="217.5" cy="345.5" r="44.5"/>
<circle fill="#3BA3DB" cx="217.5" cy="491.5" r="44.5"/>
<circle fill="#3BA3DB" cx="215" cy="69.75" r="44.5"/>
<circle fill="#3BA3DB" cx="217.5" cy="207.5" r="44.5"/>
<circle fill="#3BA3DB" cx="355.667" cy="347.34" r="44.5"/>
<circle fill="#3BA3DB" cx="355.667" cy="493.34" r="44.5"/>
<circle fill="#3BA3DB" cx="353.167" cy="71.59" r="44.5"/>
<circle fill="#3BA3DB" cx="355.667" cy="209.34" r="44.5"/>
<circle fill="#1D89CA" cx="499.5" cy="353.5" r="44.5"/>
</svg>
